<svg xmlns="http://www.w3.org/2000/svg" width="91" height="63" viewBox="0 0 91 63">
  <defs>
    <style>
      .cls-1 {
        fill-opacity: 0;
        stroke: #000;
        stroke-linejoin: round;
        stroke-width: 1px;
        fill-rule: evenodd;
      }
    </style>
  </defs>
  <path id="icon_num05.svg" class="cls-1" d="M1206.16,3950.5c-12.05,0-19.4,9.66-19.4,27.86,0,18.28,7.35,27.73,19.4,27.73,11.97,0,19.32-9.45,19.32-27.73C1225.48,3960.16,1218.13,3950.5,1206.16,3950.5Zm0,6.86c6.09,0,10.57,6.44,10.57,21,0,14.22-4.48,20.59-10.57,20.59-6.31,0-10.65-6.37-10.65-20.59C1195.51,3963.8,1199.85,3957.36,1206.16,3957.36Zm60.55-5.81h-29.27l-3.78,29.75h8.4a10.044,10.044,0,0,1,9.45-5.88c7.22,0,10.02,5.53,10.02,11.48,0,6.1-3.5,11.77-10.72,11.77-4.69,0-8.54-2.17-9.03-8.47h-9.1c0.84,10.57,7.98,15.75,18.34,15.75,11.21,0,19.12-7.56,19.12-19.19,0-9.94-6.16-17.85-17.64-17.85-0.63,0-6.59.14-10.3,3.64l2.03-13.79h22.48v-7.21Z" transform="translate(-1183 -3947)"/>
</svg>
