<svg xmlns="http://www.w3.org/2000/svg" width="92" height="63" viewBox="0 0 92 63">
  <defs>
    <style>
      .cls-1 {
        fill-opacity: 0;
        stroke: #000;
        stroke-linejoin: round;
        stroke-width: 1px;
        fill-rule: evenodd;
      }
    </style>
  </defs>
  <path id="icon_num04.svg" class="cls-1" d="M1385.16,3930.5c-12.05,0-19.4,9.66-19.4,27.86,0,18.28,7.35,27.73,19.4,27.73,11.97,0,19.32-9.45,19.32-27.73C1404.48,3940.16,1397.13,3930.5,1385.16,3930.5Zm0,6.86c6.09,0,10.57,6.44,10.57,21,0,14.22-4.48,20.59-10.57,20.59-6.31,0-10.65-6.37-10.65-20.59C1374.51,3943.8,1378.85,3937.36,1385.16,3937.36Zm58.31-6.16h-8.75l-24.93,35.98v6.1h25.7v11.69h7.98v-11.69h7.42v-7.08h-7.42v-35Zm-10.78,14.7a44.044,44.044,0,0,0,3.64-6.37c-0.28,3.08-.7,15.05-0.7,17.15l-0.14,9.52-16.67.21Z" transform="translate(-1362 -3927)"/>
</svg>
