<svg xmlns="http://www.w3.org/2000/svg" width="85" height="63" viewBox="0 0 85 63">
  <defs>
    <style>
      .cls-1 {
        fill-opacity: 0;
        stroke: #000;
        stroke-linejoin: round;
        stroke-width: 1px;
        fill-rule: evenodd;
      }
    </style>
  </defs>
  <path id="icon_num10.svg" class="cls-1" d="M1212.18,4320.13h-6.16c-1.05,2.87-4.13,7.56-13.73,8.26v5.53h11.14v40.05h8.75v-53.84Zm38.98-.63c-12.04,0-19.39,9.66-19.39,27.86,0,18.28,7.35,27.73,19.39,27.73,11.98,0,19.33-9.45,19.33-27.73C1270.49,4329.16,1263.14,4319.5,1251.16,4319.5Zm0,6.86c6.1,0,10.58,6.44,10.58,21,0,14.22-4.48,20.59-10.58,20.59-6.3,0-10.64-6.37-10.64-20.59C1240.52,4332.8,1244.86,4326.36,1251.16,4326.36Z" transform="translate(-1189 -4316)"/>
</svg>
