<svg xmlns="http://www.w3.org/2000/svg" width="90" height="63" viewBox="0 0 90 63">
  <defs>
    <style>
      .cls-1 {
        fill-opacity: 0;
        stroke: #000;
        stroke-linejoin: round;
        stroke-width: 1px;
        fill-rule: evenodd;
      }
    </style>
  </defs>
  <path id="icon_num07.svg" class="cls-1" d="M1206.16,4109.5c-12.05,0-19.4,9.66-19.4,27.86,0,18.28,7.35,27.73,19.4,27.73,11.97,0,19.32-9.45,19.32-27.73C1225.48,4119.16,1218.13,4109.5,1206.16,4109.5Zm0,6.86c6.09,0,10.57,6.44,10.57,21,0,14.22-4.48,20.59-10.57,20.59-6.31,0-10.65-6.37-10.65-20.59C1195.51,4122.8,1199.85,4116.36,1206.16,4116.36Zm63.35-5.74h-36.13v7.56l26.19-.21c-9.04,14.14-16.88,31.23-18.84,46h9.59c0.7-13.44,8.2-30.74,19.19-47.26v-6.09Z" transform="translate(-1183 -4106)"/>
</svg>
