<svg xmlns="http://www.w3.org/2000/svg" width="81" height="62" viewBox="0 0 81 62">
  <defs>
    <style>
      .cls-1 {
        fill-opacity: 0;
        stroke: #000;
        stroke-linejoin: round;
        stroke-width: 1px;
        fill-rule: evenodd;
      }
    </style>
  </defs>
  <path id="icon_num16.svg" class="cls-1" d="M1211.18,4796.13h-6.16c-1.05,2.87-4.13,7.56-13.73,8.26v5.53h11.14v40.05h8.75v-53.84Zm52.78,12.53c-0.42-7.84-7.49-12.95-16.24-12.95-15.41,0-20.38,14.91-20.38,29.26,0,12.05,3.71,25.98,19.4,25.98,13.37,0,18.48-10.15,18.48-18.63,0-9.17-5.74-17.78-17.01-17.78-4.49,0-9.88,2.24-12.4,6.16,0.42-12.46,5.74-18.2,11.84-18.2,4.27,0,7.28,1.96,7.84,6.16h8.47Zm-16.8,12.74c7,0,9.45,6.23,9.45,11.34-0.07,5.61-3.08,11.14-10.08,11.14-7.22,0-10.16-6.86-10.16-12.05A10.583,10.583,0,0,1,1247.16,4821.4Z" transform="translate(-1188 -4792)"/>
</svg>
