<svg xmlns="http://www.w3.org/2000/svg" width="80" height="61" viewBox="0 0 80 61">
  <defs>
    <style>
      .cls-1 {
        fill-opacity: 0;
        stroke: #000;
        stroke-linejoin: round;
        stroke-width: 1px;
        fill-rule: evenodd;
      }
    </style>
  </defs>
  <path id="icon_num15.svg" class="cls-1" d="M1212.18,4721.13h-6.16c-1.05,2.87-4.13,7.56-13.73,8.26v5.53h11.14v40.05h8.75v-53.84Zm50.33,0.42h-29.27l-3.78,29.75h8.4a10.044,10.044,0,0,1,9.45-5.88c7.22,0,10.02,5.53,10.02,11.48,0,6.1-3.5,11.77-10.72,11.77-4.69,0-8.54-2.17-9.03-8.47h-9.1c0.84,10.57,7.98,15.75,18.34,15.75,11.21,0,19.12-7.56,19.12-19.19,0-9.94-6.16-17.85-17.64-17.85-0.63,0-6.59.14-10.3,3.64l2.03-13.79h22.48v-7.21Z" transform="translate(-1189 -4718)"/>
</svg>
