<svg xmlns="http://www.w3.org/2000/svg" width="97" height="132" viewBox="0 0 97 132">
  <g id="img-merit03" transform="translate(-1898 -2378)">
    <g id="楕円形_9" data-name="楕円形 9" transform="translate(1898 2413)" fill="#f5cd00" stroke="#000" stroke-width="5">
      <circle cx="48.5" cy="48.5" r="48.5" stroke="none"/>
      <circle cx="48.5" cy="48.5" r="46" fill="none"/>
    </g>
    <g id="グループ_27" data-name="グループ 27" transform="translate(1931 2437)">
      <path id="パス_81" data-name="パス 81" d="M-13.464-9.988c0,7.832,5.632,11.924,13.156,11.924,7.04,0,13.288-3.432,13.288-10.56,0-4.224-1.848-7.436-6.16-8.712C10.34-18.392,11.7-21.912,11.7-24.9c0-6.116-5.236-9.548-11.836-9.548-7.436,0-12.452,4.62-12.452,11.088h6.556A5.289,5.289,0,0,1-.352-28.952C3.212-29,5.5-27.28,5.5-24.6c0,2.9-2.068,4.752-5.368,4.752h-.22L-4-19.976v5.808L-.176-14.3H.088c3.564,0,6.424,1.672,6.424,5.148,0,1.012-.088,5.544-6.556,5.544H-.176c-3.476,0-6.424-1.54-6.468-6.38Z" transform="translate(15 39)"/>
    </g>
    <g id="グループ_28" data-name="グループ 28" transform="translate(1903 2378)">
      <g id="グループ_21" data-name="グループ 21">
        <path id="パス_73" data-name="パス 73" d="M1374.172,620.034l3.576-2.026.755,1.331a5.86,5.86,0,0,1,2.8-3.826,5.919,5.919,0,0,1,5.561-.531,6.972,6.972,0,0,1,3.445-4.573c4.124-2.338,7.195-.63,8.838,2.268l5.325,9.4-3.681,2.085-5.059-8.926c-.873-1.541-1.914-2.952-4.289-1.606a3.687,3.687,0,0,0-1.452,4.376l5.266,9.293-3.654,2.07-5.059-8.926c-.858-1.515-1.914-2.952-4.289-1.6a3.717,3.717,0,0,0-1.349,4.557l5.163,9.111-3.655,2.07Z" transform="translate(-1374.172 -605.119)"/>
        <path id="パス_74" data-name="パス 74" d="M1421.728,616.407c-.3,3.979-3.221,6.336-7.867,6.553-5.155.238-8.719-2.81-8.967-8.144-.233-5.006,2.634-9.254,8.058-9.505,4.945-.23,8.365,2.916,8.6,7.951l.053,1.139-12.648.585c0,.062,0,.091.007.15.14,3,2.044,4.592,4.683,4.469,2.248-.1,3.583-1.068,3.855-3Zm-4.4-4.783c-.175-1.824-1.8-3.249-4.29-3.135a4.119,4.119,0,0,0-4.012,3.522Z" transform="translate(-1374.172 -605.119)"/>
        <path id="パス_75" data-name="パス 75" d="M1427.556,606.766l3.965,1.081-.544,2c1.6-1.306,4.3-1.41,6.278-.9l-.073,3.806c-.173-.047-.376-.1-.549-.151-3.011-.82-5.843-.129-6.744,1.584l-2.675,9.813-4.053-1.1Z" transform="translate(-1374.172 -605.119)"/>
        <path id="パス_76" data-name="パス 76" d="M1441.919,611.6l3.741,1.9-7.587,14.886-3.741-1.908Zm3-6.484,4.223,2.153-1.948,3.821-4.222-2.153Z" transform="translate(-1374.172 -605.119)"/>
        <path id="パス_77" data-name="パス 77" d="M1450.171,620.113l-2.232-1.819,2.028-2.487,2.232,1.819,2.938-3.6,3.231,2.634-2.937,3.6,3.742,3.051-2.027,2.487-3.743-3.051-4.928,6.045c-1.195,1.464-1.131,2.288.588,3.691.629.512,1.9,1.427,2.42,1.78l-3.383,1.73c-.578-.432-1.5-1.147-1.949-1.55-2.964-2.533-3.617-4.961-1.589-7.449Z" transform="translate(-1374.172 -605.119)"/>
      </g>
    </g>
  </g>
</svg>
