<svg xmlns="http://www.w3.org/2000/svg" viewBox="0 0 512 376.1" width="521" height="376.1"><path d="M366.9 152.5l-1-.5-1 .4c-26.8 11-39.3 26.7-39.3 49.4 0 33.6 20.4 45.5 39.5 45.5 19.3 0 40-12 40-45.5 0-19.7-12.8-36.3-38.2-49.3z"/><path d="M502.6 0H9.4C4.2 0 0 4.2 0 9.4v357.3c0 5.2 4.2 9.4 9.4 9.4h493.2c5.2 0 9.4-4.2 9.4-9.4V9.4c0-5.2-4.2-9.4-9.4-9.4zm-86.7 134.2l-2 .1.1.1h-.2l3.9 3.6c19.1 17.8 28.9 39.3 28.9 63.8 0 57-40.9 86.9-81.3 86.9-40.2 0-80.9-29.9-80.9-86.9 0-28.3 10.7-51.4 31.9-68.8l2.3-1.9 1.6-1.1h-.1l.2-.1-5-1c-19.5-4-40-6.1-59.2-6.1s-39.7 2.1-59.1 6.1l-3 .6-1.9.3.1.1h-.2l3.9 3.2c21.2 17.3 31.9 40.5 31.9 68.8 0 57-40.7 86.9-80.9 86.9-40.4 0-81.3-29.9-81.3-86.9 0-24.5 9.7-46 28.8-63.8l2.3-2.1 1.6-1.3h-.1l.2-.1-5.3-.5c-12.3-1.3-25.6-1.9-39.4-1.9H35.9V97h17.6c34.8 0 65.2 3.6 90.3 10.8l.8.2.8-.3c32-12.6 72.4-19.9 110.6-19.9s78.5 7.2 110.6 19.9l.8.3.8-.2c25.1-7.1 55.5-10.8 90.3-10.8h17.6v35.2h-17.6c-13.9 0-27.1.6-39.4 1.9l-3.2.1z"/><path d="M147.1 152.4l-1-.4-1 .5c-25.3 13-38.2 29.6-38.2 49.3 0 33.6 20.6 45.5 40 45.5 19.1 0 39.5-12 39.5-45.5 0-22.7-12.5-38.4-39.3-49.4z"/></svg>