<svg id="レイヤー_1" data-name="レイヤー 1" xmlns="http://www.w3.org/2000/svg" width="698" height="44" viewBox="0 0 698 44"><defs><style>.cls-1{fill:#f5cd00;}.cls-2{fill:#fff;}</style></defs><rect class="cls-1" width="698" height="44"/><path class="cls-2" d="M75.93848,24.10742A10.85548,10.85548,0,1,1,65.06982,13.26563,10.85833,10.85833,0,0,1,75.93848,24.10742Zm-19.31885,0a8.46314,8.46314,0,1,0,8.45019-8.47558A8.472,8.472,0,0,0,56.61963,24.10742Z"/><path class="cls-2" d="M101.93848,24.10742A10.85548,10.85548,0,1,1,91.06982,13.26563,10.85833,10.85833,0,0,1,101.93848,24.10742Zm-19.31885,0a8.46314,8.46314,0,1,0,8.45019-8.47558A8.472,8.472,0,0,0,82.61963,24.10742Z"/><path class="cls-2" d="M118.05762,34.0918h-8.73633a7.45042,7.45042,0,0,0,.07812,1.32617h-2.938c.02587-1.06543.15576-5.01758.15576-5.90234V19.6875c0-2.08008-.05176-4.186-.10352-6.292,1.22168.05176,5.27783.12988,6.52588.12988h7.61865c1.794,0,3.58789-.07812,6.604-.208v2.6001c-4.29-.12988-6.37012-.18213-9.25635-.18213h-8.68457V31.93359h8.73633c3.30224,0,6.94238-.15527,9.80273-.28515v2.73047C125.18213,34.24805,121.542,34.0918,118.05762,34.0918Zm5.20019-3.457a32.61864,32.61864,0,0,0-4.47168-5.35743,23.3892,23.3892,0,0,1-6.83838,5.59082l-2.10595-2.02832a16.11054,16.11054,0,0,0,4.5498-2.75586,26.734,26.734,0,0,0,2.57422-2.418,43.21373,43.21373,0,0,0-5.72021-4.21241l1.79394-1.87207a46.57691,46.57691,0,0,1,5.51221,4.186,21.5957,21.5957,0,0,0,3.17236-5.25195l2.39209,1.71582a.40818.40818,0,0,1,.23389.36425c0,.416-.67627.33789-1.01416.312a36.93445,36.93445,0,0,1-2.96387,4.47217,29.39737,29.39737,0,0,1,4.70606,5.01856Z"/><path class="cls-2" d="M174.27051,21.71582c-.13086,3.37988-.26074,6.57813-2.57422,9.46387a14.95322,14.95322,0,0,1-5.09668,4.05664l-2.23633-1.74219c6.8125-3.14648,7.28027-6.42187,7.38477-11.8042h-6.37012v1.58545a26.29722,26.29722,0,0,0,.28613,4.83691h-2.73047c.1045-.85839.25977-4.3164.25977-5.09667V21.68994c-2.80762.07764-3.61377.07764-5.564.208V19.376c1.53418.10351,4.0044.208,5.564.208v-.49414a47.219,47.219,0,0,0-.2334-5.09619l2.54785.23389c.49414.05176.832.104.832.46777,0,.36426-.38964.59815-.7539.80615a30.40572,30.40572,0,0,0-.208,4.08252h6.39648a37.10308,37.10308,0,0,0-.46875-6.13671l2.70411.23437c.80664.07813.91015.07813.91015.416,0,.15576-.07812.23388-.72754.832.02539.91015.02539,1.2998.07813,4.62793,2.834-.05176,3.89941-.12989,4.75781-.18164v2.522C178.01465,21.8457,177.05176,21.76758,174.27051,21.71582Z"/><path class="cls-2" d="M194.8877,25.2002h-5.95411c-.33789,0-4.2373,0-6.83789.31152v-2.834a49.733,49.733,0,0,0,6.83789.3125h5.95411a54.47907,54.47907,0,0,0,6.83886-.3125v2.834A61.70293,61.70293,0,0,0,194.8877,25.2002Z"/><path class="cls-2" d="M213.6084,34.06641c-7.43652,0-8.29395-1.32618-8.29395-5.27832V20.96191c0-1.82031,0-4.082-.02636-5.48632-.02637-.80616-.05176-1.144-.10352-1.66407l3.09375.57227c.38965.07764.624.10351.624.46777a.73563.73563,0,0,1-.15625.416,3.7008,3.7008,0,0,0-.51953.70215c-.07812.98779-.28613,4.29-.3125,5.12207l-.02636,1.04a38.41086,38.41086,0,0,0,11.90918-3.82227l1.50781,2.626a.99756.99756,0,0,1,.15625.416c0,.13037-.10449.26026-.416.26026-.15625,0-.28613,0-.624-.26026a61.6643,61.6643,0,0,1-8.06055,2.36621,35.60172,35.60172,0,0,1-4.47265.70215V28.6582c0,.33789,0,1.76758.65039,2.26172,1.09179.832,3.58789.96289,4.99218.96289a29.43,29.43,0,0,0,8.16407-1.27441l.02636,2.86035A56.82933,56.82933,0,0,1,213.6084,34.06641Zm7.332-16.61475a9.70718,9.70718,0,0,0-3.12012-2.39209l1.14453-1.45605a9.09716,9.09716,0,0,1,3.19825,2.33984Zm3.32812-2.1582a16.15927,16.15927,0,0,0-3.19824-2.33985l1.24805-1.456a8.649,8.649,0,0,1,3.14648,2.36572Z"/><path class="cls-2" d="M244.80957,33.49414a26.77292,26.77292,0,0,0-6.65625-7.124,27.47991,27.47991,0,0,1-9.62109,7.17676L226.583,31.23242a21.84335,21.84335,0,0,0,6.75976-3.666,23.63385,23.63385,0,0,0,7.0459-9.98487h-4.62793a56.35156,56.35156,0,0,0-6.292.28614v-2.6001c.832.07812,4.03027.208,5.0957.208h3.82227a15.79227,15.79227,0,0,0,3.12012-.12989,2.77575,2.77575,0,0,0,1.27441-.59814l1.92383,2.13232c-.49414.33789-.64942.46778-1.24805.90967a55.5234,55.5234,0,0,1-3.84765,6.68213,32.44307,32.44307,0,0,1,7.30566,7.15039Z"/><path class="cls-2" d="M259.60254,19.1416a32.0863,32.0863,0,0,1-2.26172,7.28028,28.34159,28.34159,0,0,1,3.63965,5.877l-2.26172,1.793a22.29816,22.29816,0,0,0-2.7041-5.1211,19.06229,19.06229,0,0,1-5.43457,5.82422l-2.05371-1.74219a17.31893,17.31893,0,0,0,5.97949-6.11132,33.92038,33.92038,0,0,0-4.18555-4.3418l1.89746-1.66406a44.87413,44.87413,0,0,1,3.459,3.50976,24.91354,24.91354,0,0,0,1.45508-5.38183H253.752c-.33789,0-1.97558,0-4.1084.208V16.72363c1.76856.18213,3.43262.208,4.1084.208h.88379c0-2.78223,0-3.09424-.10351-4.62793l2.67773.33789c.46875.05176.70215.07813.70215.4419,0,.33789-.49414.52-.80566.6499-.07813.8584-.07813,1.09228-.12989,3.19824h.416a33.04613,33.04613,0,0,0,3.92578-.208v2.54785C260.59082,19.19385,260.46,19.19385,259.60254,19.1416Zm4.03027,11.36231a14.49447,14.49447,0,0,0-2.91211-5.2002l2.10547-1.32519a13.53079,13.53079,0,0,1,3.042,5.043Zm6.34375-9.51612V32.89648c0,1.32618,0,3.09375-3.09375,3.09375a14.56667,14.56667,0,0,1-2.44433-.208l-1.04-2.80762a13.16932,13.16932,0,0,0,3.042.44141c1.06641,0,1.06641-.51954,1.06641-1.11719v-11.311h-1.63868c-.28515,0-3.11914.12989-4.082.26026V18.62158c1.14453.104,2.44434.15625,4.1084.15625h1.61231V17.50391c0-1.74219-.05176-3.48438-.1045-5.22657l2.4961.36426c.44238.05176.91015.12988.91015.49414,0,.23389-.02539.23389-.7539.624-.05176,1.14355-.07813,2.33984-.07813,3.92578v1.09228c.57227-.02588,1.79395-.07812,2.93848-.208v2.522C272.36914,21.0918,270.34082,20.98779,269.97656,20.98779Z"/><path class="cls-2" d="M290.959,17.06152H279.544v4.0044c0,7.59228-.832,10.24463-2.67774,13.57275l-2.49609-1.16992c2.834-3.69238,2.834-7.93066,2.834-13.78125,0-1.898,0-2.18359-.10351-4.8877,2.05371.05176,2.3916.05176,7.07226.05176h1.8711c0-.12988,0-1.48193-.05176-2.54785l2.73047.208c.10351.02588.49414.05176.49414.416,0,.28565-.208.36377-.75391.624-.02637.33789-.02637.49365-.02637,1.2998h2.44434c4.80957,0,6.52637-.07812,7.9043-.15625v2.52246C297.30273,17.13965,295.53516,17.06152,290.959,17.06152Zm-7.0205,9.335a19.66077,19.66077,0,0,1-2.418,6.99415l-2.65235-1.06641a14.00236,14.00236,0,0,0,2.65235-8.00781l2.57422.85742c.38965.12988.67578.25976.67578.5459C284.77051,26.10938,284.25,26.292,283.93848,26.39648Zm8.08593,9.09961H288.333c-2.91211,0-3.43262-.93554-3.43262-3.58789V25.71973c0-1.76758,0-2.626-.10449-3.84766l2.80859.31152c.3125.02637.624.1045.624.39063,0,.38965-.5459.623-.80567.72754v8.55469c0,.88378,0,1.53418,1.35156,1.53418h3.25a1.443,1.443,0,0,0,1.45606-.88477,10.15875,10.15875,0,0,0,.93652-2.65234l2.36621,1.50878C295.56055,35.49609,294.46875,35.49609,292.02441,35.49609Zm-1.76757-10.26953a11.175,11.175,0,0,0-3.19825-5.30468l1.89746-1.58594a14.35451,14.35451,0,0,1,3.69239,5.14844Zm6.39648,4.627a14.76916,14.76916,0,0,0-2.73047-5.9795l2.05371-1.35254a15.747,15.747,0,0,1,3.0166,5.95508Z"/><path class="cls-2" d="M314.90527,32.27246h-6.57812c-2.21,0-4.44629.05176-6.65625.2334V29.93164c2.28808.18262,5.64258.23438,6.65625.23438h2.08008V18.41357c-.33789,0-4.21192,0-6.78614.13038V16.07373c.85743.07764,1.29981.104,1.89746.12988.59864.02588,3.19825.07813,3.71875.07813h5.90235c1.50781,0,3.27539-.07813,4.80957-.208V18.544c-2.78223-.18213-3.27637-.208-6.81152-.208V30.166h1.76757c2.23633,0,4.47266-.05176,6.708-.23438v2.57422C318.72754,32.27246,315.165,32.27246,314.90527,32.27246Z"/><path class="cls-2" d="M328.00879,15.29346c-.02539.78027-.02539,2.44433-.02539,3.25049v3.7705c0,.7793.12988,3.56153.18164,4.3418h-2.93848a34.51385,34.51385,0,0,0,.208-4.36816V18.0498c0-1.01416-.02539-3.14648-.07812-4.10839l2.60058.15625c.57227.02588.78027.18164.78027.49414C328.7373,14.85156,328.37305,15.08545,328.00879,15.29346Zm11.6748-.70166a1.91705,1.91705,0,0,0-.46777.38965c-.05273,1.248-.13086,6.73437-.18262,7.82617-.10351,1.76855-.33789,5.85058-3.458,8.68457a20.606,20.606,0,0,1-5.30469,3.5625l-2.21-2.31446a10.66351,10.66351,0,0,0,5.4082-2.7041c3.09473-2.67871,3.09473-5.92871,3.09473-12.2207,0-2.96387,0-3.12012-.05274-4.3418l2.67871.18164c.28614.02637.70215.05225.70215.52051A.46819.46819,0,0,1,339.68359,14.5918Z"/><path class="cls-2" d="M362.74512,18.93359c-2.28809,3.19825-3.27539,4.57618-5.71973,6.65625l-2.05469-1.8457a17.8155,17.8155,0,0,0,6.00684-6.57861H350.62891c-2.002,0-5.09668.07812-7.64453.18213V14.98145c2.05468.12988,5.20019.18212,7.51464.18212h6.21387a44.61571,44.61571,0,0,0,5.98047-.49414l1.92383,2.36621C364.0459,17.2959,363.86328,17.37354,362.74512,18.93359ZM354.58105,20c-.416,4.44531-.91015,9.67188-6.916,14.19629l-2.54883-1.6377a14.04747,14.04747,0,0,0,4.81055-4.57617,12.97907,12.97907,0,0,0,1.89844-7.61865c0-.57178,0-.98779-.05274-1.87207l2.80859.28613c.57227.05176.70215.39014.70215.57178C355.2832,19.60986,355.20508,19.63574,354.58105,20Z"/><path class="cls-2" d="M38.38443,20.569A14.93345,14.93345,0,0,0,35.4899,24.9192a2.2165,2.2165,0,0,1-4.10865-.00488,16.25746,16.25746,0,0,0-3.42759-4.93449c-.31666-.351-.63329-.69979-.94261-1.0581a.32242.32242,0,0,0-.04533.0156,2.616,2.616,0,0,0-1.60924,3.33011c.388.90919,3.11366.739,2.88039,2.69685-.19524,1.6068,1.902,2.02,2.64688,1.9461.74515-.0858,1.88541,1.2246,1.30918,1.79839-.5711.57842-1.65433.59987-1.48516,2.08991.04265.43095,1.35427.37489,1.35427,1.0318,0,.65715-.68079,1.40814-.157,2.16864a1.71393,1.71393,0,0,0,.34734.3939A14.0521,14.0521,0,0,1,10.284,17.53284a8.22644,8.22644,0,0,0,1.97584,5.256c2.06383,2.059,5.05343,1.40912,5.43687,3.13487.39022,1.72208-2.05191,1.72575-1.8925,3.042.16675,1.32233,3.34669,1.66993,2.63737,2.88625-.9377,1.61508.63083,1.73184.17624,3.72425-.24278,1.08883,1.32819,1.29724,1.91148.47.44265-.6318.35466-1.40912,1.24727-2.35877,1.09252-1.16416,3.62995-1.35208,3.34669-3.278-.48311-3.198-3.58946-3.69793-4.944-4.44648-1.54-.84265-1.15928-2.86821-1.49248-3.8359-.46654-1.36865-2.04945.388-2.8921-.41535-1.38767-1.30918.24765-3.16241,1.414-3.12317,2.459.0775,3.21335,2.46846,4.11791,2.38388.88311-.07607,1.45446-1.308,1.60924-1.96365.32833-1.42472-.55478-.78683-.90943-1.53051-.476-.994,1.67578-1.94244,2.50891-2.67566a1.12579,1.12579,0,0,0,.27157-.313c.24982-.49164-.07632-.86287-.63329-1.1973-1.10931-.67738-3.13487-1.21168-3.23015-2.2542-.05243-.64642,1.17582-.95818,2.58031-1.013.23327.01074.46169.03341.69493.05486a9.22814,9.22814,0,0,1,.56185-1.9305,15.56961,15.56961,0,0,0-2.04945-.13455A16.045,16.045,0,1,0,38.77467,24.05754a15.61171,15.61171,0,0,0-.39024-3.48855ZM32.6858,3.93013a7.90157,7.90157,0,0,0-6.84133,9.29906c.80461,4.5513,4.99882,5.95213,7.08413,11.0604a.55157.55157,0,0,0,1.021.00244c2.309-5.66646,7.21744-6.77235,7.21744-12.66964A7.73154,7.73154,0,0,0,32.6858,3.93013ZM33.438,15.70594a4.08234,4.08234,0,1,1,4.08229-4.08355A4.08343,4.08343,0,0,1,33.438,15.70594Z"/></svg>