<svg xmlns="http://www.w3.org/2000/svg" width="78" height="61" viewBox="0 0 78 61">
  <defs>
    <style>
      .cls-1 {
        fill-opacity: 0;
        stroke: #000;
        stroke-linejoin: round;
        stroke-width: 1px;
        fill-rule: evenodd;
      }
    </style>
  </defs>
  <path id="icon_num12.svg" class="cls-1" d="M1212.18,4472.13h-6.16c-1.05,2.87-4.13,7.56-13.73,8.26v5.53h11.14v40.05h8.75v-53.84Zm23.72,18.69c0.14-7.07,3.85-11.9,10.01-11.9,3.37,0,8.9,1.4,8.9,8.05,0,3.71-1.75,6.93-5.18,10.29-4.98,4.97-11,9.94-15.2,14.43a60.9,60.9,0,0,0-6.93,8.54v5.74H1263v-7.84l-24.72.35a23.937,23.937,0,0,1,2.73-3.15c3.92-3.92,10.3-8.9,15.06-13.38,5.32-4.97,7.28-9.24,7.28-15.61,0-6.58-5.04-14.77-17.15-14.77-12.05,0-18.42,8.75-18.84,19.25h8.54Z" transform="translate(-1189 -4468)"/>
</svg>
