<svg xmlns="http://www.w3.org/2000/svg" width="91" height="63" viewBox="0 0 91 63">
  <defs>
    <style>
      .cls-1 {
        fill-opacity: 0;
        stroke: #000;
        stroke-linejoin: round;
        stroke-width: 1px;
        fill-rule: evenodd;
      }
    </style>
  </defs>
  <path id="icon_num08.svg" class="cls-1" d="M1206.16,4182.5c-12.05,0-19.4,9.66-19.4,27.86,0,18.28,7.35,27.73,19.4,27.73,11.97,0,19.32-9.45,19.32-27.73C1225.48,4192.16,1218.13,4182.5,1206.16,4182.5Zm0,6.86c6.09,0,10.57,6.44,10.57,21,0,14.22-4.48,20.59-10.57,20.59-6.31,0-10.65-6.37-10.65-20.59C1195.51,4195.8,1199.85,4189.36,1206.16,4189.36Zm54.25,19.18c3.64-.98,8.19-5.04,8.19-11.83,0-7.63-6.3-14.21-17.37-14.21-10.78,0-17.64,6.65-17.64,14.49a12.073,12.073,0,0,0,7.91,11.55,14.022,14.022,0,0,0-9.66,13.59c0,9.87,8.05,15.89,19.53,15.89,10.86,0,19.05-5.95,19.05-16.17A13.448,13.448,0,0,0,1260.41,4208.54Zm0-11.76c0,5.53-3.92,8.33-9.18,8.33-5.11,0-9.38-2.59-9.38-8.12,0-4.9,3.78-8.12,9.24-8.12C1257.12,4188.87,1260.41,4192.16,1260.41,4196.78Zm1.47,25.07c0,5.39-4.27,9.24-10.58,9.24s-11.06-3.43-11.06-9.17c0-6.03,4.69-9.74,10.85-9.74C1257.19,4212.18,1261.88,4215.75,1261.88,4221.85Z" transform="translate(-1183 -4179)"/>
</svg>
