<svg xmlns="http://www.w3.org/2000/svg" width="91" height="63" viewBox="0 0 91 63">
  <defs>
    <style>
      .cls-1 {
        fill-opacity: 0;
        stroke: #000;
        stroke-linejoin: round;
        stroke-width: 1px;
        fill-rule: evenodd;
      }
    </style>
  </defs>
  <path id="icon_num06.svg" class="cls-1" d="M1206.16,4028.5c-12.05,0-19.4,9.66-19.4,27.86,0,18.28,7.35,27.73,19.4,27.73,11.97,0,19.32-9.45,19.32-27.73C1225.48,4038.16,1218.13,4028.5,1206.16,4028.5Zm0,6.86c6.09,0,10.57,6.44,10.57,21,0,14.22-4.48,20.59-10.57,20.59-6.31,0-10.65-6.37-10.65-20.59C1195.51,4041.8,1199.85,4035.36,1206.16,4035.36Zm63,6.3c-0.42-7.84-7.49-12.95-16.24-12.95-15.41,0-20.38,14.91-20.38,29.26,0,12.05,3.71,25.98,19.4,25.98,13.37,0,18.48-10.15,18.48-18.63,0-9.17-5.74-17.78-17.01-17.78-4.49,0-9.88,2.24-12.4,6.16,0.42-12.46,5.74-18.2,11.84-18.2,4.27,0,7.28,1.96,7.84,6.16h8.47Zm-16.8,12.74c7,0,9.45,6.23,9.45,11.34-0.07,5.61-3.08,11.14-10.08,11.14-7.22,0-10.16-6.86-10.16-12.05A10.583,10.583,0,0,1,1252.36,4054.4Z" transform="translate(-1183 -4025)"/>
</svg>
