<svg xmlns="http://www.w3.org/2000/svg" width="80" height="62" viewBox="0 0 80 62">
  <defs>
    <style>
      .cls-1 {
        fill-opacity: 0;
        stroke: #000;
        stroke-linejoin: round;
        stroke-width: 1px;
        fill-rule: evenodd;
      }
    </style>
  </defs>
  <path id="icon_num13.svg" class="cls-1" d="M1212.18,4561.13h-6.16c-1.05,2.87-4.13,7.56-13.73,8.26v5.53h11.14v40.05h8.75v-53.84Zm24.98,15.19c0.14-6.02,4.48-8.75,9.38-8.75,4.77,0,9.04,2.17,9.04,7.42,0,4.76-3.78,7.98-8.69,7.98h-0.42l-5.6-.14v7.56l5.46-.14h0.42c4.91,0,10.44,2.52,10.44,8.97,0,5.39-3.78,9.52-10.93,9.45-5.6,0-10.15-2.73-10.36-10.22h-8.75c0.07,6.3,3.5,17.43,18.97,17.43,10.16,0,19.33-5.18,19.33-15.96,0-6.87-3.5-12.26-10.22-13.66,5.67-1.4,8.33-6.79,8.33-11.83,0-8.82-7.21-14-16.95-14-10.08,0-17.85,6.16-17.85,15.75v0.14h8.4Z" transform="translate(-1189 -4557)"/>
</svg>
