<svg xmlns="http://www.w3.org/2000/svg" width="89" height="63" viewBox="0 0 89 63">
  <defs>
    <style>
      .cls-1 {
        fill-opacity: 0;
        stroke: #000;
        stroke-linejoin: round;
        stroke-width: 1px;
        fill-rule: evenodd;
      }
    </style>
  </defs>
  <path id="icon_num02.svg" class="cls-1" d="M64.156,1337.5c-12.041,0-19.392,9.66-19.392,27.86,0,18.28,7.351,27.73,19.392,27.73,11.971,0,19.322-9.45,19.322-27.73C83.478,1347.16,76.127,1337.5,64.156,1337.5Zm0,6.86c6.091,0,10.571,6.44,10.571,21,0,14.22-4.48,20.59-10.571,20.59-6.3,0-10.641-6.37-10.641-20.59C53.515,1350.8,57.855,1344.36,64.156,1344.36ZM99.5,1356.82c0.14-7.07,3.85-11.9,10.011-11.9,3.36,0,8.891,1.4,8.891,8.05,0,3.71-1.75,6.93-5.181,10.29-4.97,4.97-10.991,9.94-15.191,14.43a60.9,60.9,0,0,0-6.931,8.54v5.74H126.6v-7.84l-24.713.35a23.937,23.937,0,0,1,2.73-3.15c3.921-3.92,10.292-8.9,15.052-13.38,5.321-4.97,7.281-9.24,7.281-15.61,0-6.58-5.041-14.77-17.152-14.77-12.041,0-18.412,8.75-18.832,19.25H99.5Z" transform="translate(-41 -1334)"/>
</svg>
