<svg xmlns="http://www.w3.org/2000/svg" width="90" height="63" viewBox="0 0 90 63">
  <defs>
    <style>
      .cls-1 {
        fill-opacity: 0;
        stroke: #000;
        stroke-linejoin: round;
        stroke-width: 1px;
        fill-rule: evenodd;
      }
    </style>
  </defs>
  <path id="icon_num09.svg" class="cls-1" d="M1206.16,4251.5c-12.05,0-19.4,9.66-19.4,27.86,0,18.28,7.35,27.73,19.4,27.73,11.97,0,19.32-9.45,19.32-27.73C1225.48,4261.16,1218.13,4251.5,1206.16,4251.5Zm0,6.86c6.09,0,10.57,6.44,10.57,21,0,14.22-4.48,20.59-10.57,20.59-6.31,0-10.65-6.37-10.65-20.59C1195.51,4264.8,1199.85,4258.36,1206.16,4258.36Zm26.24,34.87c1.12,9.73,8.61,13.72,16.94,13.72,15.69,0,20.31-14.14,20.31-29.27,0-24.57-14.35-26.04-19.4-26.04-12.88,0-18.27,10.71-18.27,18.55,0,9.52,6.16,17.5,17.36,17.5,4.63,0,9.95-2.24,12.33-6.09-0.07,12.75-6.02,18.14-11.91,18.14-4.27,0-7.98-1.68-8.68-6.51h-8.68Zm17.92-34.73c7.29,0,10.44,6.72,10.44,11.9,0,5.88-4.97,10.15-10.72,10.15-6.58,0-9.59-4.62-9.59-10.78C1240.45,4264.03,1244.16,4258.5,1250.32,4258.5Z" transform="translate(-1183 -4248)"/>
</svg>
