<svg xmlns="http://www.w3.org/2000/svg" width="90" height="63" viewBox="0 0 90 63">
  <defs>
    <style>
      .cls-1 {
        fill-opacity: 0;
        stroke: #000;
        stroke-linejoin: round;
        stroke-width: 1px;
        fill-rule: evenodd;
      }
    </style>
  </defs>
  <path id="icon_num03.svg" class="cls-1" d="M58.156,1440.5c-12.041,0-19.392,9.66-19.392,27.86,0,18.28,7.351,27.73,19.392,27.73,11.971,0,19.322-9.45,19.322-27.73C77.478,1450.16,70.127,1440.5,58.156,1440.5Zm0,6.86c6.091,0,10.571,6.44,10.571,21,0,14.22-4.48,20.59-10.571,20.59-6.3,0-10.641-6.37-10.641-20.59C47.515,1453.8,51.855,1447.36,58.156,1447.36Zm35.208,8.96c0.14-6.02,4.48-8.75,9.381-8.75,4.76,0,9.031,2.17,9.031,7.42,0,4.76-3.781,7.98-8.681,7.98h-0.42l-5.6-.14v7.56l5.461-.14h0.42c4.9,0,10.431,2.52,10.431,8.97,0,5.39-3.78,9.52-10.921,9.45-5.6,0-10.151-2.73-10.361-10.22H83.353c0.07,6.3,3.5,17.43,18.972,17.43,10.151,0,19.322-5.18,19.322-15.96,0-6.87-3.5-12.26-10.221-13.66,5.67-1.4,8.331-6.79,8.331-11.83,0-8.82-7.211-14-16.942-14-10.081,0-17.852,6.16-17.852,15.75v0.14h8.4Z" transform="translate(-35 -1437)"/>
</svg>
