<svg xmlns="http://www.w3.org/2000/svg" width="78" height="63" viewBox="0 0 78 63">
  <defs>
    <style>
      .cls-1 {
        fill-opacity: 0;
        stroke: #000;
        stroke-linejoin: round;
        stroke-width: 1px;
        fill-rule: evenodd;
      }
    </style>
  </defs>
  <path id="icon_num01.svg" class="cls-1" d="M119.156,1390.5c-12.042,0-19.392,9.66-19.392,27.86,0,18.28,7.35,27.73,19.392,27.73,11.971,0,19.322-9.45,19.322-27.73C138.478,1400.16,131.127,1390.5,119.156,1390.5Zm0,6.86c6.09,0,10.571,6.44,10.571,21,0,14.22-4.481,20.59-10.571,20.59-6.3,0-10.641-6.37-10.641-20.59C108.515,1403.8,112.855,1397.36,119.156,1397.36Zm51.03-6.23h-6.161c-1.05,2.87-4.13,7.56-13.722,8.26v5.53h11.132v40.05h8.751v-53.84Z" transform="translate(-96 -1387)"/>
</svg>
