<svg id="レイヤー_1" data-name="レイヤー 1" xmlns="http://www.w3.org/2000/svg" width="1000" height="404" viewBox="0 0 1000 404"><defs><style>.cls-1{fill:#fff;}</style></defs><rect class="cls-1" width="1000" height="404"/><path d="M226.73828,196.34619c7.20068,1.7002,15.70117,7.70069,15.70117,19.20069a20.04367,20.04367,0,0,1-6.10058,15.001c-5.1001,5.001-13.30078,7.20117-24.80127,7.20117a134.18493,134.18493,0,0,1-14.10108-.80078V162.04443a82.60175,82.60175,0,0,1,16.40088-1.60009c9.40088,0,15.60108,1.7998,20.10156,5.60009,3.6001,3.10059,5.7002,7.50049,5.7002,13.20118,0,7.5-5.10059,14.00048-12.90088,16.80078Zm-12.10058-2.7998c10.10058,0,16.60107-5.8003,16.60107-13.60108v-.1001c0-9.00048-6.60059-12.90039-17.001-12.90039a35.836,35.836,0,0,0-8.501.69971v25.90186Zm-8.90088,37.102a43.32576,43.32576,0,0,0,8.10058.5c10.501,0,19.90137-4.10059,19.90137-15.60156,0-11.4004-9.90039-15.6001-20.001-15.6001h-8.001Z"/><path d="M290.8374,224.14746a76.25713,76.25713,0,0,0,.79981,13.001h-7.60059l-.7998-7H282.937a18.94923,18.94923,0,0,1-16.10107,8.20019c-10.40088,0-15.90088-7.60058-15.90088-15.501,0-13.10059,11.40039-20.20118,31.60156-20.10157,0-4.59961,0-15-12.40039-15A23.58446,23.58446,0,0,0,256.835,191.646l-2-5.7002a31.013,31.013,0,0,1,16.60108-4.6001c15.40087,0,19.40136,10.90039,19.40136,21.70118Zm-8.20068-15.30078c-10.30078,0-23.20117,1.5-23.20117,13.001,0,7.001,4.3999,10.10058,9.40039,10.10058,8.10058,0,13.80078-6.20019,13.80078-12.80078Z"/><path d="M350.4375,237.14844h-8.30078V204.94629c0-8.8999-3.2002-16.7002-12.70068-16.7002-7.1001,0-14.30079,6-14.30079,15.501v33.40137H306.835v-40.502c0-5.60058-.20019-9.70068-.40039-14.10107h7.40088l.5,8.90088h.19971a19.45487,19.45487,0,0,1,17.501-10.10059c6.80078,0,18.40137,4.1001,18.40137,22.60059Z"/><path d="M410.13623,237.14844h-8.30078V204.94629c0-8.8999-3.2002-16.7002-12.70068-16.7002-7.1001,0-14.30079,6-14.30079,15.501v33.40137h-8.30029v-40.502c0-5.60058-.20019-9.70068-.40039-14.10107h7.40039l.50049,8.90088h.19971a19.45488,19.45488,0,0,1,17.501-10.10059c6.80078,0,18.40137,4.1001,18.40137,22.60059Z"/><path d="M464.83447,234.84863c-3.09961,1.5-8.80078,3.40039-17.10107,3.40039-15.90088,0-25.40137-11.20117-25.40137-27.50195,0-17.10059,9.60059-29.40137,24.30127-29.40137,16.80078,0,21.10156,15.40088,21.10156,24.90137,0,1.89941-.09961,3.29981-.20019,4.59961H430.43262c.10009,15.10156,8.70019,20.80176,18.501,20.80176a34.4588,34.4588,0,0,0,14.30127-2.79981Zm-5.2998-30.20215c.09961-7.3999-3.001-17.00048-13.70117-17.00048-10.00049,0-14.40088,9.50048-15.20118,17.00048Z"/><path d="M505.03223,189.646a25.01937,25.01937,0,0,0-3-.2002c-9.00049,0-13.60108,8.90088-13.60108,18.10108v29.60156h-8.30078V198.94678c0-5.80078-.09961-11.10108-.39941-16.30127h7.2998l.40039,10.50049h.29981c2.40039-6.8003,8.10058-11.70069,14.80127-11.70069a21.2583,21.2583,0,0,1,2.5.3003Z"/><path d="M538.3291,160.94434h8.29981v76.2041H538.3291Z"/><path d="M637.63379,237.14844h-8.20117v-31.502c0-10.60009-3.79981-17.40039-12-17.40039-6.70117,0-12.80078,6.3003-12.80078,14.60059v34.30176h-8.20118V203.54688c0-8.70069-3.70019-15.30079-11.40039-15.30079-7.10058,0-13.40039,7.00049-13.40039,15.501v33.40137h-8.20117v-40.502c0-5.60058-.19922-9.60058-.39941-14.10107h7.2998l.5,8.80078h.30078c3-5.30029,8-10.00049,16.60059-10.00049,7.10058,0,12.60058,4.39991,14.90137,10.90039h.19921c3.60059-6.50048,9.10059-10.90039,17.501-10.90039,6.70117,0,17.30176,4.3003,17.30176,23.001Z"/><path d="M689.43066,224.14746a76.25281,76.25281,0,0,0,.80079,13.001h-7.60059l-.80078-7h-.29981a18.94762,18.94762,0,0,1-16.10058,8.20019c-10.40039,0-15.90137-7.60058-15.90137-15.501,0-13.10059,11.40137-20.20118,31.60254-20.10157,0-4.59961,0-15-12.40137-15a23.5829,23.5829,0,0,0-13.30078,3.89991l-2-5.7002a31.01475,31.01475,0,0,1,16.60156-4.6001c15.40039,0,19.40039,10.90039,19.40039,21.70118Zm-8.20019-15.30078c-10.30078,0-23.20117,1.5-23.20117,13.001,0,7.001,4.40039,10.10058,9.40039,10.10058,8.10058,0,13.80078-6.20019,13.80078-12.80078Z"/><path d="M749.73145,182.54541c-.29981,3.90039-.5,8.30078-.5,15.001v31.80224c0,9.5-.2002,31.30078-26.001,31.30078-6.20117,0-13.001-1.5-17.10156-4.2998l2.20019-6.5a29.99189,29.99189,0,0,0,15.30078,4.09961c10.001,0,17.30176-5.29981,17.30176-19.70117v-6.5h-.20019c-2.80079,5.10058-8.60059,9.30078-16.90137,9.30078-13.001,0-22.30176-11.501-22.30176-26.80176,0-18.90088,11.80078-28.90137,23.60156-28.90137,9.30078,0,14.20117,5,16.501,9.40039h.20019l.4004-8.20068Zm-8.9004,21.00147c0-9.50049-6.90039-15.501-14.501-15.501-9.60059,0-16.30078,8.50049-16.30078,21.70117,0,11.60059,5.60058,20.70117,16.20117,20.70117,6.20019,0,14.60058-4.70019,14.60058-16.001Z"/><path d="M804.22949,234.84863c-3.09961,1.5-8.80078,3.40039-17.10058,3.40039-15.90137,0-25.40235-11.20117-25.40235-27.50195,0-17.10059,9.60059-29.40137,24.30176-29.40137,16.80078,0,21.10156,15.40088,21.10156,24.90137,0,1.89941-.09961,3.29981-.20019,4.59961H769.82715c.10058,15.10156,8.70117,20.80176,18.502,20.80176a34.458,34.458,0,0,0,14.30078-2.79981Zm-5.2998-30.20215c.09961-7.3999-3.001-17.00048-13.70117-17.00048-10.001,0-14.40137,9.50048-15.20118,17.00048Z"/></svg>