<svg id="レイヤー_1" data-name="レイヤー 1" xmlns="http://www.w3.org/2000/svg" width="1200" height="800" viewBox="0 0 1200 800"><defs><style>.cls-1{fill:#fff;}</style></defs><rect class="cls-1" width="1200" height="800"/><path d="M303.64111,414.23535H229.042c14.3999,22.79981,41.19971,36.59961,76.999,41.79883a60.71136,60.71136,0,0,0-8.19971,12c-39.59961-7.39941-67.79932-24.39941-82.999-53.79883h-3c-10.19971,20.39942-32.59913,39.39942-80.19874,53.79883a58.1749,58.1749,0,0,0-8.1997-11c41.79931-11.7998,62.59912-26.79883,72.999-42.79883H125.044v-11.7998h77.39843a77.33034,77.33034,0,0,0,3.8003-18.39942H149.64355V372.436h56.999V355.23633H144.24365v-11.3999h62.39893V323.83691l17.3999,1.2002c-.20019,1.3999-1.20019,2.3999-3.80029,2.7998v15.99952H284.0415V318.437H143.64355v26.39942h-13.1997V306.437h76.19873V281.8374l17.7998,1.2002c-.20019,1.3999-1.3999,2.3999-4,2.6001V306.437h77.39893v38.39942H285.0415v10.3999H220.24219V372.436h60.19922v11.60009H219.84229a85.02324,85.02324,0,0,1-3.39991,18.39942h87.19873Z"/><path d="M344.44336,354.43652A233.17033,233.17033,0,0,1,323.44385,386.436a113.35074,113.35074,0,0,0-6.6001-13c17.19971-20.79981,33.7998-55.59913,43.99951-90.19874l15.79981,5c-.6001,1.39991-2,2.2002-4.6001,2.2002a395.47742,395.47742,0,0,1-15.3999,39.59912l4.60009,1.40039c-.3999,1.3999-1.3999,2.19971-3.7998,2.59961V468.03418h-13ZM450.042,292.63721V304.8374H407.84277c-1.60058,9.39942-3.40039,19.59961-6.20019,29.99951H433.042a8.56385,8.56385,0,0,1,2.40039-.40039c1.79981.6001,3.59961,1.2002,8.19922,3a5.094,5.094,0,0,1-1.59961,2.39991c-8.20019,63.39892-30.39941,106.39795-61.59912,128.79834a45.98056,45.98056,0,0,0-9-10.60059c17.19971-11.7998,31.6001-29.79883,41.99951-54.59863-5.7998-6.39991-16.39941-15.19971-25.39941-21.39942l5.7998-10.20019c8.39942,5.6001,18.59961,13.20019,24.19922,19.1997a241.19534,241.19534,0,0,0,10.2002-43.999H398.44238c-6.19922,20.19971-14.79931,39.99951-27.19922,54.59912a53.37477,53.37477,0,0,0-8.3999-9.3999c18.3999-21.99951,27.3999-57.59912,31.79932-87.39844H374.84277V292.63721ZM461.6416,421.63477H449.24219V304.8374l16.19922,1c-.2002,1.3999-1.2002,2.3999-3.79981,2.79981ZM486.84082,285.0376l16.60059,1c-.2002,1.3999-1.2002,2.3999-3.79981,2.59961V450.23438c0,16.5996-7.60058,17.7998-39.39941,17.7998a61.7157,61.7157,0,0,0-4.40039-13.39941c6.20019.20019,12,.39941,16.59961.39941,13.20019,0,14.39941,0,14.39941-4.59961Z"/><path d="M538.64355,322.63672c-6.39941,0-10.7998-4.99951-10.7998-11.39942a10.8896,10.8896,0,0,1,11-11.20019c6.59961,0,10.7998,5,10.7998,11.20019C549.64355,318.23682,545.044,322.63672,538.64355,322.63672ZM547.043,450.835H530.44336V341.83643H547.043Z"/><path d="M728.43945,450.835H712.03906v-62.999c0-21.19971-7.59961-34.79932-23.999-34.79932-13.40039,0-25.59961,12.59961-25.59961,29.19922V450.835H646.04V383.63623c0-17.3999-7.39941-30.59961-22.79981-30.59961-14.19921,0-26.79882,13.99951-26.79882,30.99951V450.835H580.041V369.83643c0-11.2002-.39942-19.19971-.79981-28.19971h14.59961l1,17.59961h.60059c6-10.59961,15.999-19.99951,33.19922-19.99951,14.20019,0,25.19921,8.7998,29.7998,21.79931h.39941c7.2002-12.99951,18.2002-21.79931,35-21.79931,13.39942,0,34.59961,8.59961,34.59961,45.999Z"/><path d="M832.04,424.835c0,9,.20019,18.39942,1.59961,26H818.44043l-1.60059-14h-.59961c-5.5996,8.59961-16.7998,16.39942-32.19921,16.39942-20.79981,0-31.79981-15.19922-31.79981-30.999,0-26.19971,22.79981-40.39941,63.19922-40.19922,0-9.20019,0-29.99951-24.7998-29.99951-9.4004,0-19.2002,2.59961-26.59961,7.79981l-4-11.39991c8.7998-5.7998,21-9.1997,33.19921-9.1997,30.79981,0,38.79981,21.79931,38.79981,43.39941Zm-16.40039-30.59912c-20.59961,0-46.39844,3-46.39844,25.99951,0,14,8.79981,20.19922,18.79981,20.19922,16.19921,0,27.59863-12.39941,27.59863-25.59961Z"/><path d="M952.63867,341.63672c-.59961,7.7998-1,16.59961-1,29.99951v63.59912c0,18.999-.39941,62.59863-51.999,62.59863-12.39942,0-25.999-3-34.19922-8.5996l4.39941-13a59.96883,59.96883,0,0,0,30.59961,8.20019c20,0,34.59961-10.60059,34.59961-39.39941v-13h-.39941c-5.60059,10.19922-17.2002,18.59961-33.79981,18.59961-26,0-44.59961-23-44.59961-53.59913,0-37.79931,23.59961-57.79882,47.19922-57.79882,18.59961,0,28.39942,9.99951,33,18.7998h.39942l.80078-16.3999Zm-17.7998,41.99951c0-19-13.79981-31-28.999-31-19.20019,0-32.59961,17-32.59961,43.39941,0,23.19971,11.2002,41.39893,32.39942,41.39893,12.40039,0,29.19922-9.39941,29.19922-31.999Z"/><path d="M1061.6377,446.23438c-6.2002,3-17.59961,6.80078-34.19922,6.80078-31.79981,0-50.79981-22.40039-50.79981-54.99952,0-34.19921,19.2002-58.79882,48.59961-58.79882,33.59961,0,42.19922,30.79931,42.19922,49.79931,0,3.79981-.2002,6.59961-.40039,9.19971H992.83887c.20019,30.19873,17.39941,41.59912,36.999,41.59912a68.88626,68.88626,0,0,0,28.59961-5.59961Zm-10.59961-60.39844c.19921-14.79981-6-33.99951-27.39942-33.99951-20,0-28.7998,19-30.40039,33.99951Z"/></svg>