<svg xmlns="http://www.w3.org/2000/svg" viewBox="0 0 130.12 122.41"><defs><style>.cls-1{fill:#0d2848;}</style></defs><title>アセット 1</title><g id="レイヤー_2" data-name="レイヤー 2"><g id="レイヤー_1-2" data-name="レイヤー 1"><path class="cls-1" d="M100.93,8.74A75.4,75.4,0,0,0,60.73.12,74.85,74.85,0,0,0,34.38,6.24a61.54,61.54,0,0,0-24,17.94A45.82,45.82,0,0,0,.07,50C0,50.76,0,51.47,0,52.18a41.46,41.46,0,0,0,1,8.16c2.49,11.2,8.57,20.19,17.22,27.52A64,64,0,0,0,36.07,98.48,73.48,73.48,0,0,0,52.77,103a16.23,16.23,0,0,1,5.47,1.58,4,4,0,0,1,2.31,3.08,15.13,15.13,0,0,1,.09,2.76,24.25,24.25,0,0,1-.42,5.17c-.29,1.75-.62,3.5-.82,5.26.23,1.13,1,1.61,2.36,1.56a5.21,5.21,0,0,0,2-.49c2.66-1.28,5.38-2.48,7.92-4a241.58,241.58,0,0,0,35-25,94.53,94.53,0,0,0,13.88-14.65,45.63,45.63,0,0,0,9.49-28c-.12-5.84-2.13-13-6-19.72C118.59,21,110.62,13.92,100.93,8.74ZM39.78,70.2c-4.44,0-8.87,0-13.31,0a3.48,3.48,0,0,1-3.3-3.15c0-.21,0-.41,0-.61V64.86h0q0-12.7,0-25.4a3.48,3.48,0,0,1,3.3-3.76,3.54,3.54,0,0,1,3.73,3.64q0,10.55,0,21.11v1.15c3.17,0,6.23,0,9.29,0A3.37,3.37,0,0,1,43,64.35a3,3,0,0,1,.09.78s0,.08,0,.13a3.3,3.3,0,0,1-.08.64h0v0A3.53,3.53,0,0,1,39.78,70.2Zm13.34-18v1.54c0,4.26,0,8.52,0,12.78a3.76,3.76,0,0,1-2.87,3.62,3.54,3.54,0,0,1-3.79-1.88A4.68,4.68,0,0,1,46,66.36q0-6.76,0-13.53h0c0-.15,0-.3,0-.44Q46,46,46,39.55c0-2.76,2.36-4.54,4.73-3.68a3.7,3.7,0,0,1,2.39,3.61q0,6.35,0,12.69ZM84.28,40.87v.31q0,11.78,0,23.55v1.58a3.55,3.55,0,0,1-6.58,2.19L64.87,51v4.87q0,2.4,0,4.8v.2h0v0c0,1.92,0,3.83,0,5.75a3.74,3.74,0,0,1-3,3.55A3.55,3.55,0,0,1,58,67.79,6.14,6.14,0,0,1,57.77,66c0-.53,0-1.05,0-1.58h0q0-12.22,0-24.43A6.61,6.61,0,0,1,58,38.08a3.24,3.24,0,0,1,2.68-2.35,3.52,3.52,0,0,1,3.62,1.61l4,5.43,8.32,11.35c.13.18.27.34.54.67V53.65q0-7,0-13.93a4,4,0,0,1,1.16-3.08A3.31,3.31,0,0,1,82,35.92,3.52,3.52,0,0,1,84.27,39a5.1,5.1,0,0,1,0,.61Zm24.25-.08a3.43,3.43,0,0,1-3.36,3.49c-2.86,0-5.72,0-8.58,0h-.91v4.35h1c2.83,0,5.66,0,8.49,0a3.35,3.35,0,0,1,3.36,3.66,3.25,3.25,0,0,1-.08.69h0a4.45,4.45,0,0,1,.08.9A3.47,3.47,0,0,1,105,57.25H95.68v4.34h1c2.89,0,5.78,0,8.67,0a3.33,3.33,0,0,1,3.2,3.62,3.16,3.16,0,0,1-.09.69h0a4.26,4.26,0,0,1,.09.89,3.47,3.47,0,0,1-3.33,3.37q-6.56,0-13.13,0a3.41,3.41,0,0,1-3.36-3.41V65.21q0-12.3,0-24.59V39A3.33,3.33,0,0,1,92,35.7q6.57,0,13.14,0a3.38,3.38,0,0,1,3.36,3.5,3.62,3.62,0,0,1-.09.78A3.78,3.78,0,0,1,108.54,40.79Z"/></g></g></svg>