<svg xmlns="http://www.w3.org/2000/svg" viewBox="0 0 109.2 109.38"><defs><style>.cls-1{fill:#0f294b;}</style></defs><title>アセット 1</title><g id="レイヤー_2" data-name="レイヤー 2"><g id="レイヤー_4" data-name="レイヤー 4"><path class="cls-1" d="M77.45,109.38H31.76A31.79,31.79,0,0,1,0,77.63V31.76A31.79,31.79,0,0,1,31.76,0H77.45A31.79,31.79,0,0,1,109.2,31.76V77.63A31.79,31.79,0,0,1,77.45,109.38ZM31.76,10A21.77,21.77,0,0,0,10,31.76V77.63A21.77,21.77,0,0,0,31.76,99.38H77.45A21.77,21.77,0,0,0,99.19,77.63V31.76A21.77,21.77,0,0,0,77.45,10Z"/><path class="cls-1" d="M54.6,82.66a28,28,0,1,1,28-28A28,28,0,0,1,54.6,82.66Zm0-46.14A18.17,18.17,0,1,0,72.77,54.69,18.19,18.19,0,0,0,54.6,36.52Z"/><circle class="cls-1" cx="83.93" cy="25.63" r="6.67"/></g></g></svg>