<svg xmlns="http://www.w3.org/2000/svg" width="1002" height="570" viewBox="0 0 1002 570"><defs><style>.cls-1{fill:#eef5eb;}</style></defs><g id="レイヤー_2" data-name="レイヤー 2"><rect class="cls-1" width="1002" height="570"/><path d="M264.82666,320.99121H190.22754c14.3999,22.79981,41.19971,36.59961,76.999,41.79883a60.71173,60.71173,0,0,0-8.1997,12c-39.59961-7.39941-67.79932-24.39941-82.999-53.79883h-3c-10.1997,20.39942-32.59912,39.39942-80.19873,53.79883a58.175,58.175,0,0,0-8.19971-11c41.79932-11.79981,62.59913-26.79883,72.999-42.79883H86.22949v-11.7998h77.39844a77.32982,77.32982,0,0,0,3.80029-18.39942H110.8291V279.19141h56.999V261.9917H105.4292V250.5918h62.39893V230.59229l17.3999,1.20019c-.2002,1.3999-1.2002,2.3999-3.8003,2.79981V250.5918h63.79932V225.19238H104.8291V251.5918H91.62939V213.19238h76.19874V188.59277l17.7998,1.2002c-.2002,1.3999-1.3999,2.3999-4,2.6001v20.79931h77.39893V251.5918H246.22705v10.3999H181.42773v17.19971H241.627V290.792H181.02783a85.03409,85.03409,0,0,1-3.3999,18.39942h87.19873Z"/><path d="M325.62891,261.19189a233.13949,233.13949,0,0,1-20.99952,31.99952,113.35066,113.35066,0,0,0-6.60009-13c17.20019-20.79981,33.7998-55.59912,43.999-90.19873l15.79981,5c-.59961,1.3999-2,2.20019-4.59961,2.20019A395.47432,395.47432,0,0,1,337.8291,236.792l4.59961,1.40039c-.40039,1.39991-1.40039,2.19971-3.7998,2.59961V374.79h-13Zm105.59863-61.79931v12.20019H389.02832c-1.60059,9.39942-3.40039,19.59961-6.20019,29.99952h31.39941a8.56365,8.56365,0,0,1,2.40039-.4004c1.7998.6001,3.59961,1.2002,8.19922,3a5.094,5.094,0,0,1-1.59961,2.39991c-8.2002,63.39941-30.39941,106.39843-61.59863,128.79883a46.01648,46.01648,0,0,0-9-10.60059c17.19922-11.79981,31.59961-29.79883,41.999-54.59863-5.7998-6.40039-16.39941-15.2002-25.39941-21.39942l5.7998-10.20068c8.39941,5.6001,18.59961,13.20068,24.19922,19.19971a241.19484,241.19484,0,0,0,10.20019-43.999h-29.7998c-6.19922,20.19971-14.7998,40-27.19922,54.59961a53.34173,53.34173,0,0,0-8.40039-9.40039c18.40039-21.99951,27.40039-57.59912,31.79981-87.39844H356.02832V199.39258Zm11.59961,128.998H430.42773V211.59277l16.19922,1c-.20019,1.39991-1.20019,2.39991-3.7998,2.79981ZM468.02734,191.793l16.59961,1c-.20019,1.3999-1.20019,2.3999-3.80078,2.59961V356.99023c0,16.60059-7.59961,17.79981-39.39844,17.79981a61.71462,61.71462,0,0,0-4.40039-13.39941c6.2002.20019,12,.39941,16.59961.39941,13.2002,0,14.40039,0,14.40039-4.59961Z"/><path d="M707.02637,236.792h-35.999c5.19922,1.8003,6.59961,2.2002,8,2.8003-.60058,1.3999-2.20019,2-5,2-11.59961,32.79931-27.39941,58.79931-48.39941,79.79931,22.59961,18.79883,50.39941,32.59863,83.79883,40.19922a65.09917,65.09917,0,0,0-9.59961,13.39941c-34.2002-8.7998-62.19922-23.39941-85.19922-43.5996-22.59961,19-50.39941,33-84.39844,43.39941-1.40039-3.39941-5.20019-9-7.7998-12.19922,32.79883-9.40039,59.999-22.59961,81.998-40.7998-21.5996-22.19922-37.999-49.79932-49.79882-82.39893l8.20019-2.6001H524.22949v-13.1997h83.79883V188.59277l17.79981,1.2002c-.2002,1.3999-1.4004,2.3999-4,2.7998v30.99952h85.19824Zm-138.59766,0c10.39942,29.19971,26,54.59961,46.999,75.19922,19.79981-19.7998,34.79981-44.39941,45.39942-75.19922Z"/><path d="M745.0293,227.59229H926.42676v11.7998H745.0293Zm29.19922,146.99755V310.99121H896.627V373.79H883.02734v-8.19922H787.42871v8.999Zm119.79882-118.998v11.3999H776.42871V255.5918ZM776.42871,294.3916V282.9917H894.02734v11.3999Zm114.998-94.19873v11.19971h-111.998V200.19287ZM883.02734,322.791H787.42871v31h95.59863Z"/></g></svg>